<svg width="173" height="23" viewBox="0 0 173 23" fill="none" xmlns="http://www.w3.org/2000/svg">
<path d="M0.0399933 22V0.700002H9.12999C10.15 0.700002 11.08 0.910002 11.92 1.33C12.78 1.73 13.52 2.28 14.14 2.98C14.76 3.66 15.24 4.43 15.58 5.29C15.92 6.15 16.09 7.02 16.09 7.9C16.09 9.14 15.8 10.31 15.22 11.41C14.66 12.51 13.87 13.41 12.85 14.11C11.83 14.79 10.64 15.13 9.27999 15.13H4.95999V22H0.0399933ZM4.95999 10.84H8.97999C9.55999 10.84 10.06 10.59 10.48 10.09C10.9 9.59 11.11 8.86 11.11 7.9C11.11 6.92 10.86 6.2 10.36 5.74C9.87999 5.26 9.35999 5.02 8.79999 5.02H4.95999V10.84Z" fill="white"/>
<path d="M28.0614 22.18C26.4814 22.18 25.0414 21.88 23.7414 21.28C22.4614 20.66 21.3514 19.84 20.4114 18.82C19.4714 17.78 18.7514 16.62 18.2514 15.34C17.7514 14.04 17.5014 12.7 17.5014 11.32C17.5014 9.92 17.7614 8.58 18.2814 7.3C18.8214 6 19.5614 4.85 20.5014 3.85C21.4614 2.83 22.5914 2.03 23.8914 1.45C25.1914 0.870002 26.6114 0.580002 28.1514 0.580002C29.7314 0.580002 31.1614 0.890002 32.4414 1.51C33.7414 2.11 34.8514 2.93 35.7714 3.97C36.7114 5.01 37.4314 6.18 37.9314 7.48C38.4314 8.76 38.6814 10.07 38.6814 11.41C38.6814 12.81 38.4114 14.16 37.8714 15.46C37.3514 16.74 36.6114 17.89 35.6514 18.91C34.7114 19.91 33.5914 20.71 32.2914 21.31C31.0114 21.89 29.6014 22.18 28.0614 22.18ZM22.5114 11.38C22.5114 12.48 22.7214 13.52 23.1414 14.5C23.5614 15.46 24.1914 16.25 25.0314 16.87C25.8714 17.49 26.8914 17.8 28.0914 17.8C29.3314 17.8 30.3614 17.48 31.1814 16.84C32.0214 16.2 32.6414 15.39 33.0414 14.41C33.4614 13.41 33.6714 12.38 33.6714 11.32C33.6714 10.22 33.4514 9.19 33.0114 8.23C32.5914 7.25 31.9614 6.46 31.1214 5.86C30.3014 5.26 29.2914 4.96 28.0914 4.96C26.8514 4.96 25.8114 5.28 24.9714 5.92C24.1514 6.54 23.5314 7.34 23.1114 8.32C22.7114 9.3 22.5114 10.32 22.5114 11.38Z" fill="white"/>
<path d="M41.5244 22V0.700002H51.1244C52.1244 0.700002 53.0444 0.910002 53.8844 1.33C54.7444 1.73 55.4844 2.28 56.1044 2.98C56.7244 3.66 57.2044 4.43 57.5444 5.29C57.9044 6.15 58.0844 7.02 58.0844 7.9C58.0844 9.22 57.7644 10.44 57.1244 11.56C56.5044 12.66 55.6644 13.5 54.6044 14.08L59.2844 22H53.8544L49.7744 15.13H46.4444V22H41.5244ZM46.4444 10.84H50.9444C51.5244 10.84 52.0244 10.57 52.4444 10.03C52.8644 9.47 53.0744 8.76 53.0744 7.9C53.0744 7.04 52.8344 6.35 52.3544 5.83C51.8744 5.29 51.3544 5.02 50.7944 5.02H46.4444V10.84Z" fill="white"/>
<path d="M77.5884 5.02H71.1084V22H66.1884V5.02H59.6784V0.700002H77.5884V5.02Z" fill="white"/>
<path d="M79.9912 22V0.700002H94.4512V5.02H84.9112V9.61H92.7712V13.6H84.9112V22H79.9912Z" fill="white"/>
<path d="M106.108 22.18C104.528 22.18 103.088 21.88 101.788 21.28C100.508 20.66 99.3983 19.84 98.4583 18.82C97.5183 17.78 96.7983 16.62 96.2983 15.34C95.7983 14.04 95.5483 12.7 95.5483 11.32C95.5483 9.92 95.8083 8.58 96.3283 7.3C96.8683 6 97.6083 4.85 98.5483 3.85C99.5083 2.83 100.638 2.03 101.938 1.45C103.238 0.870002 104.658 0.580002 106.198 0.580002C107.778 0.580002 109.208 0.890002 110.488 1.51C111.788 2.11 112.898 2.93 113.818 3.97C114.758 5.01 115.478 6.18 115.978 7.48C116.478 8.76 116.728 10.07 116.728 11.41C116.728 12.81 116.458 14.16 115.918 15.46C115.398 16.74 114.658 17.89 113.698 18.91C112.758 19.91 111.638 20.71 110.338 21.31C109.058 21.89 107.648 22.18 106.108 22.18ZM100.558 11.38C100.558 12.48 100.768 13.52 101.188 14.5C101.608 15.46 102.238 16.25 103.078 16.87C103.918 17.49 104.938 17.8 106.138 17.8C107.378 17.8 108.408 17.48 109.228 16.84C110.068 16.2 110.688 15.39 111.088 14.41C111.508 13.41 111.718 12.38 111.718 11.32C111.718 10.22 111.498 9.19 111.058 8.23C110.638 7.25 110.008 6.46 109.168 5.86C108.348 5.26 107.338 4.96 106.138 4.96C104.898 4.96 103.858 5.28 103.018 5.92C102.198 6.54 101.578 7.34 101.158 8.32C100.758 9.3 100.558 10.32 100.558 11.38Z" fill="white"/>
<path d="M119.571 22V0.700002H124.491V17.68H134.811V22H119.571Z" fill="white"/>
<path d="M137.12 22V0.700002H142.04V22H137.12Z" fill="white"/>
<path d="M155.444 22.18C153.864 22.18 152.424 21.88 151.124 21.28C149.844 20.66 148.734 19.84 147.794 18.82C146.854 17.78 146.134 16.62 145.634 15.34C145.134 14.04 144.884 12.7 144.884 11.32C144.884 9.92 145.144 8.58 145.664 7.3C146.204 6 146.944 4.85 147.884 3.85C148.844 2.83 149.974 2.03 151.274 1.45C152.574 0.870002 153.994 0.580002 155.534 0.580002C157.114 0.580002 158.544 0.890002 159.824 1.51C161.124 2.11 162.234 2.93 163.154 3.97C164.094 5.01 164.814 6.18 165.314 7.48C165.814 8.76 166.064 10.07 166.064 11.41C166.064 12.81 165.794 14.16 165.254 15.46C164.734 16.74 163.994 17.89 163.034 18.91C162.094 19.91 160.974 20.71 159.674 21.31C158.394 21.89 156.984 22.18 155.444 22.18ZM149.894 11.38C149.894 12.48 150.104 13.52 150.524 14.5C150.944 15.46 151.574 16.25 152.414 16.87C153.254 17.49 154.274 17.8 155.474 17.8C156.714 17.8 157.744 17.48 158.564 16.84C159.404 16.2 160.024 15.39 160.424 14.41C160.844 13.41 161.054 12.38 161.054 11.32C161.054 10.22 160.834 9.19 160.394 8.23C159.974 7.25 159.344 6.46 158.504 5.86C157.684 5.26 156.674 4.96 155.474 4.96C154.234 4.96 153.194 5.28 152.354 5.92C151.534 6.54 150.914 7.34 150.494 8.32C150.094 9.3 149.894 10.32 149.894 11.38Z" fill="white"/>
<path d="M168.37 22V17.11H172.3V22H168.37Z" fill="white"/>
</svg>
